<?xml version="1.0" encoding="utf-8"?>
<svg version="1.1" class="cds-Logo" alt="Coronadatascraper logo" id="Layer_1" xmlns="http://www.w3.org/2000/svg" x="0px" y="0px"
	 viewBox="0 0 107.7 40.3" style="enable-background:new 0 0 107.7 40.3;" xml:space="preserve">
<defs>
 <linearGradient id="markGradient">
	 <stop offset="0%"  stop-color="#829800" />
	 <stop offset="50%" stop-color="#007E60" />
	 <stop offset="95%" stop-color="#21385E" />
 </linearGradient>
</defs>
<path class="cds-Logo-Mark" fill="url('#markGradient')" d="M16.3,24.7c1-0.4,2.1-0.6,3.2-0.7v-3.2h-3.8C15.8,22.2,16,23.5,16.3,24.7z M15.7,19.8h3.8v-3.2c-1.1-0.1-2.2-0.3-3.2-0.7
	C16,17.1,15.8,18.4,15.7,19.8z M16.6,15c0.9,0.4,1.9,0.6,2.9,0.7v-4.3C18.3,11.8,17.3,13.1,16.6,15z M15.4,15.5
	c-0.7-0.4-1.3-0.8-1.9-1.3c-1.4,1.5-2.3,3.5-2.4,5.6h3.6C14.8,18.2,15,16.8,15.4,15.5z M17.3,11.8c-1.1,0.4-2.1,1-3,1.7
	c0.5,0.4,0.9,0.7,1.5,1C16.1,13.4,16.6,12.5,17.3,11.8z M26,13.5c-0.9-0.8-1.9-1.4-3-1.7c0.6,0.7,1.2,1.7,1.6,2.8
	C25.1,14.2,25.6,13.9,26,13.5z M14.2,27.2c0.9,0.8,1.9,1.4,3,1.7c-0.6-0.7-1.2-1.7-1.6-2.8C15.2,26.4,14.7,26.8,14.2,27.2z
	 M14.7,20.8h-3.6c0.1,2.2,1,4.1,2.4,5.6c0.6-0.5,1.2-0.9,1.9-1.3C15,23.9,14.8,22.4,14.7,20.8z M19.5,29.3V25c-1,0.1-2,0.3-2.9,0.7
	C17.3,27.5,18.3,28.9,19.5,29.3z M20.5,11.3v4.4c1.1,0,2.2-0.3,3.1-0.7C22.9,13,21.8,11.6,20.5,11.3z M24.9,15.5
	c0.4,1.3,0.6,2.8,0.6,4.3h3.6c-0.1-2.2-1-4.1-2.4-5.6C26.2,14.7,25.5,15.1,24.9,15.5z M24.9,25.2c0.7,0.4,1.3,0.8,1.9,1.3
	c1.4-1.5,2.3-3.5,2.4-5.6h-3.6C25.5,22.4,25.2,23.9,24.9,25.2z M38.1,17.6c-0.5,0-0.9,0.3-1.2,0.8c-0.4,0.6-1.9,0.4-4.4-0.1
	c-0.2-1-0.4-1.9-0.8-2.7c2-1.7,3.1-2.7,3.8-2.3c0,0,0,0,0,0c0.5,0.2,1,0.3,1.4,0c0.8-0.5,0.9-1.8,0.2-3c-0.7-1.2-1.9-1.8-2.7-1.3
	c-0.4,0.2-0.6,0.7-0.7,1.3c-0.1,0.8-1.5,1.3-4,2.2c-0.6-0.7-1.2-1.3-2-1.9c0.9-2.6,1.4-4,2.2-4.1c0,0,0,0,0,0c0.6,0,1-0.3,1.2-0.7
	c0.5-0.8-0.1-2-1.3-2.7c-1.2-0.7-2.5-0.6-3,0.2c-0.2,0.4-0.2,0.9,0.1,1.4c0.3,0.7-0.7,1.9-2.5,4C23.7,8.4,22.9,8.1,22,8
	c-0.5-2.7-0.8-4.2-0.1-4.7c0.5-0.3,0.8-0.7,0.8-1.2c0-0.9-1.1-1.7-2.5-1.7c-1.4,0-2.5,0.8-2.5,1.7c0,0.5,0.3,0.9,0.7,1.2
	c0,0,0,0,0,0c0.7,0.4,0.3,2-0.1,4.7c-0.9,0.1-1.8,0.4-2.6,0.7c-1.8-2.1-2.8-3.2-2.5-4c0.3-0.5,0.3-1,0.1-1.4c-0.5-0.8-1.8-0.9-3-0.2
	C9.1,3.7,8.6,4.9,9,5.7c0.2,0.4,0.7,0.6,1.2,0.7c0,0,0,0,0,0c0.8,0.1,1.3,1.5,2.2,4.1c-0.7,0.6-1.4,1.2-2,1.9
	c-2.5-0.9-3.9-1.4-4-2.2c0-0.6-0.3-1-0.7-1.3C5,8.5,3.8,9,3.1,10.2c-0.7,1.2-0.6,2.5,0.2,3c0.4,0.2,0.9,0.2,1.4,0c0,0,0,0,0,0
	c0.7-0.3,1.8,0.6,3.8,2.3c-0.4,0.9-0.6,1.8-0.8,2.7c-2.5,0.5-4,0.7-4.4,0.1c-0.3-0.5-0.7-0.8-1.2-0.8c-0.9,0-1.7,1.1-1.7,2.5
	s0.8,2.5,1.7,2.5c0.5,0,0.9-0.3,1.2-0.7c0,0,0,0,0,0c0.4-0.6,1.8-0.4,4.3,0.1c0.1,1,0.4,2,0.7,2.9c-1.9,1.6-3,2.5-3.6,2.2
	c-0.5-0.3-1-0.3-1.4-0.1c-0.8,0.5-0.9,1.8-0.2,3C3.8,31,5,31.6,5.8,31.2c0.4-0.2,0.6-0.7,0.7-1.2c0,0,0,0,0,0c0.1-0.7,1.4-1.2,3.7-2
	c0.6,0.8,1.3,1.6,2.2,2.2c-0.8,2.3-1.3,3.5-2,3.6c-0.6,0-1,0.3-1.3,0.7c-0.5,0.8,0.1,2,1.3,2.7c1.2,0.7,2.5,0.6,3-0.2
	c0.2-0.4,0.2-0.9,0-1.4c0,0,0,0,0,0c-0.3-0.7,0.5-1.7,2.1-3.5c1,0.4,2,0.7,3.1,0.8c0.4,2.3,0.6,3.7,0,4.1c0,0,0,0,0,0
	c-0.5,0.3-0.7,0.7-0.7,1.2c0,0.9,1.1,1.7,2.5,1.7c1.4,0,2.5-0.8,2.5-1.7c0-0.5-0.3-0.9-0.8-1.2c-0.6-0.4-0.4-1.7,0-4.1
	c1.1-0.1,2.1-0.4,3.1-0.8c1.5,1.8,2.4,2.9,2.1,3.5c0,0,0,0,0,0c-0.2,0.5-0.3,1,0,1.4c0.5,0.8,1.8,0.9,3,0.2c1.2-0.7,1.8-1.9,1.3-2.7
	c-0.2-0.4-0.7-0.6-1.3-0.7c-0.7-0.1-1.2-1.3-2-3.6c0.8-0.6,1.5-1.4,2.2-2.2c2.3,0.8,3.6,1.3,3.7,2c0,0,0,0,0,0c0,0.6,0.3,1,0.7,1.2
	c0.8,0.5,2-0.1,2.7-1.3c0.7-1.2,0.6-2.5-0.2-3c-0.4-0.2-0.9-0.2-1.4,0.1c-0.7,0.3-1.8-0.6-3.6-2.2c0.3-0.9,0.6-1.9,0.7-2.9
	c2.5-0.5,3.9-0.7,4.3-0.1c0,0,0,0,0,0c0.3,0.5,0.7,0.7,1.2,0.7c0.9,0,1.7-1.1,1.7-2.5S39,17.6,38.1,17.6z M20.1,30.4
	c-5.6,0-10.1-4.5-10.1-10.1s4.5-10.1,10.1-10.1s10.1,4.5,10.1,10.1S25.7,30.4,20.1,30.4z M23,28.9c1.1-0.4,2.1-1,3-1.7
	c-0.5-0.4-0.9-0.7-1.5-1C24.1,27.2,23.6,28.2,23,28.9z M23.9,16c-1.1,0.4-2.3,0.7-3.4,0.7v3.1h4C24.5,18.4,24.3,17.1,23.9,16z
	 M24.5,20.8h-4V24c1.2,0,2.4,0.3,3.4,0.7C24.3,23.5,24.5,22.2,24.5,20.8z M20.5,25v4.4c1.3-0.2,2.4-1.6,3.1-3.7
	C22.7,25.2,21.6,25,20.5,25z"/>
<g>
	<path class="cds-Logo-Type" d="M54,33.4c-5.6,0-9-3-9-8.6v-9c0-5.6,3.4-8.6,9.2-8.6s8.8,2.6,8.8,8V16c0,0.4-0.2,0.8-0.6,0.8h-1.6c-0.4,0-0.6-0.2-0.6-0.6
		v-1c0-3.8-1.6-5.6-5.8-5.6c-4,0-6,2-6,6V25c0,3.8,2,6,6,6c4.2,0,5.8-1.8,5.8-5.6v-1c0-0.4,0.2-0.6,0.6-0.6h1.6
		c0.4,0,0.6,0.2,0.6,0.8v1C62.8,30.8,59.8,33.4,54,33.4z"/>
	<path class="cds-Logo-Type" d="M75.2,7.6h-8.8c-0.4,0-0.8,0.4-0.8,0.8v1c0,0.4,0.4,0.6,0.8,0.6h2.4v20.8h-2.4c-0.4,0-0.8,0.2-0.8,0.6v0.8
		c0,0.6,0.4,0.8,0.8,0.8h8.8c6.6,0,10.6-2.8,10.6-9.2v-7C85.8,10.4,81.8,7.6,75.2,7.6z M82.8,24c0,4.6-2.6,6.6-7.4,6.6H72V10h3.4
		c4.8,0,7.4,1.8,7.4,6.6V24z"/>
	<path class="cds-Logo-Type" d="M106.8,13.8v1c0,0.4-0.2,0.8-0.6,0.8h-1.6c-0.4,0-0.6-0.2-0.6-0.6v-1.2c0-2.8-1.8-4.2-5.4-4.2s-5.4,1.4-5.4,4.2v0.8
		c0,2.6,1.2,3.2,3.6,3.6l4.6,0.8c3.8,0.6,5.8,2,5.8,6.2V26c0,4.4-2.8,7-8.8,7s-8.6-2.4-8.6-6.6v-1.2c0-0.4,0.2-0.6,0.6-0.6H92
		c0.4,0,0.6,0.2,0.6,0.6v1.2c0,3,1.8,4.2,5.6,4.2c3.8,0,5.8-1.4,5.8-4.4v-0.8c0-2.8-1.2-3.2-3.6-3.8l-4.6-0.8
		c-3.8-0.6-5.8-2-5.8-6.2v-0.4c0-4.4,2.6-7,8.4-7C104.4,7.4,106.8,9.6,106.8,13.8z"/>
</g>
</svg>
