<svg version="1" xmlns="http://www.w3.org/2000/svg" width="1214.667" height="1214.667" viewBox="0 0 911.000000 911.000000"><path d="M437 6.4c-24.3 5.2-40.2 18.8-41.8 35.8-.8 9.7 4.9 20.5 15 28.2 7.1 5.4 9 10.5 9.1 23.4.1 11.9-1.1 25.7-3.3 37.7-.5 2.7-1.2 6.8-1.5 9-.3 2.2-.7 5.1-1 6.5-.3 1.4-.7 4.1-.9 6-.3 1.9-1.2 8.3-2.1 14.3-1.9 11.8-1.2 10.8-10 12.2-8.1 1.3-25.3 5.8-36.5 9.7-6.3 2.2-12.2 4.2-13 4.4-1.7.6-2.9-.7-16.9-17.1-5.1-6.1-10.5-12.3-11.9-13.9-8.4-9.7-19.6-25.1-25.3-34.6-2.7-4.4-5.1-11.4-5.6-16-.4-3.5.2-6.2 2.8-12.5 7.6-18.7 2-34-14.9-40.6-4.4-1.7-7.9-2.2-15.7-2.3-5.5-.1-11.6.2-13.5.6-13.9 2.8-34.4 13.9-42.5 22.9-13.1 14.5-17.4 31.2-11.6 44.5 3.5 7.9 11.2 13 24.7 16.4 4 1.1 8.3 2.4 9.5 3 11 5.9 20.8 25.2 38.6 76l5.4 15.5-2.3 1.9c-7.7 6.2-15.9 13.8-28.5 26.3-7.8 7.9-14.9 14.3-15.7 14.3-1.3 0-31.5-10.6-37.1-13-1.1-.5-6-2.5-11-4.5-23.7-9.6-37.5-18.7-40.9-27-.7-1.6-1.6-5.7-2-9-1.2-11-9-22.5-17.9-26.6-9-4-22.4-1.5-34.4 6.4-27.1 18-40.8 56.6-28.7 80.8 4.4 8.8 14.1 15 23.8 15.3 4.5.1 13.9-1.5 17.4-3 5.8-2.4 12-2 19.9 1.3 12.1 5.1 24.3 14 57.6 41.6l10.6 8.9-2.1 5.1c-4.1 10.4-9.6 28.5-12.8 42.2-1.8 7.7-3.4 14.2-3.6 14.3-.2.4-15.5 3.4-22.5 4.6-1.9.3-7.2 1.2-11.9 2-18.1 3.2-30 4.3-42 4.1-14.1-.3-19.5-2.5-25.3-10.4-8.5-11.7-16.1-16.1-26.9-15.7-17.2.6-31.7 17.7-36.5 43-2 10.8-1.2 25.6 2 36.2 3.8 12.6 11 23.3 19.5 29 6.4 4.3 11.4 5.7 18.1 5.2 9.4-.7 16.3-5 25.7-15.9 3.3-3.9 7.7-6.3 13.2-7.4 3.5-.7 20.5-.8 26.4-.1 9.3 1.2 33.1 5 42.8 7 1.4.3 5.3 1.1 8.7 1.7 6.8 1.4 6.7 1.3 7.8 9.4 1.6 12.2 4.8 26 10.4 44.2 2.3 7.3 4.1 13.4 4.1 13.7 0 .3-3.9 3.8-8.7 7.8-4.9 3.9-9 7.5-9.3 7.8-.7.7-18.2 14.5-25 19.7-13.5 10.2-25.9 16.3-33 16.3-1.5 0-5.7-1.4-9.4-3-15.3-7-30.6-3.2-37.9 9.3-15.2 26 2 69.4 33.8 85.5 13.6 6.9 26.5 7.3 35.6 1.1 4.7-3.2 10.6-13.9 12.3-22.1 1.8-8.7 4.1-12.3 11.6-17.9 6.8-5.1 16.2-9.8 32.5-16.1 7.7-3.1 14.9-5.9 16-6.3 1.1-.4 2.5-.9 3-1.1.6-.1 5.5-1.8 10.9-3.8 5.5-2 10.3-3.6 10.7-3.6.5 0 3.4 3.3 6.6 7.2 13.5 17.1 31.8 34.8 43.1 41.7 1 .6.3 3.6-3.3 13.7-15.5 42.9-24.6 60.2-34.9 66.8-1.5 1-6 2.2-9.9 2.8-9 1.2-14.7 3.9-20.8 9.9-9 8.7-11.3 18.4-7.4 30.6 8.4 26.4 40.4 47.8 70.4 47 8.7-.2 10.5-.6 16.4-3.5 16.1-7.9 20.6-21.9 13.9-42.4-2.6-7.8-2-13.4 2.4-22.5 3.7-7.4 15.2-24 22.9-32.7.6-.6 3.7-4.2 7-8.1 16.7-19.4 14.2-17.8 23-14.4 16.9 6.5 41.5 12.8 56.3 14.4 3.4.4 6.4 1 6.6 1.4.4.5 1.6 7.3 4.1 23 5.2 31.7 5.9 50 2.4 61-1.4 4.5-3 6.4-9.7 11.3-16.6 12.4-16.7 35-.1 48.8 12.2 10.2 25.1 14.4 44.4 14.4 14.9.1 21.8-1.4 33.2-6.9 15.1-7.4 23.7-18.9 23.7-31.4 0-8.9-2.9-14.7-10.7-21.4-11.6-10-12.5-11.1-14.2-17.1-1.4-4.7-1.6-8.4-1.2-19 .3-7.2.8-14.9 1.1-17.1.8-6.8 4.6-31.6 5.9-39l1.2-6.9 8-1.3c4.4-.7 9.8-1.5 12-1.8 7.1-1.1 26.1-6.4 38.7-10.9l12.3-4.3 10.8 13.1c18 21.8 34.7 44.9 34.7 48.1 0 .4.7 2.1 1.5 3.8 2.4 5.3 2.3 9.8-.3 17.2-3.5 9.9-4 18.9-1.4 24.7 4 9.2 11.8 15.6 22.7 18.4 4.8 1.3 20.1 1.3 25.4 0 37.1-8.9 65-43.9 53.9-67.7-2.9-6.1-5.3-8.9-10.7-12.3-4-2.5-12.3-5.4-17.9-6.1-10.3-1.5-17.1-8.2-25.9-26-5.6-11.2-23-56.2-22.1-57 .2-.1 3-2.4 6.3-5 8.9-7 41-40.1 42.3-43.6.6-1.6 2.8-1 19.7 5.1 28.1 10.1 48.4 19 52.3 22.7.7.7 1.7 1.3 2.1 1.3 1 0 7.7 6.5 9.6 9.3.8 1.3 1.8 4 2 5.8 1.5 12.2 3.3 16.5 9 22.2 11.5 11.5 28.8 12 44.7 1.5 20.1-13.3 33.5-36.8 34.4-60 1.1-29.7-18.1-44.6-43.5-33.8-5.9 2.5-8.5 3.1-12.2 2.8-5.6-.6-15.6-5.1-24.9-11.4-6.8-4.5-28.8-22.4-38.2-30.9-2.6-2.4-6-5.3-7.4-6.4l-2.7-2.1 4.1-13.8c6.6-21.8 10-36.6 11.5-49.7.3-2.9.7-3.1 8.3-4.7 4.3-.9 9.7-1.9 11.9-2.2 2.2-.4 5.1-.8 6.5-1.1 4.4-1 13.4-2.5 18-3.1 2.5-.3 7.5-.9 11.2-1.4 9.6-1.4 25.7-1.4 30.9 0 4.9 1.3 11.9 5.6 11.9 7.4 0 1.5 7.1 9 10.7 11.4 7.3 4.7 20.3 5.4 28.3 1.4 11.3-5.5 20.4-18.7 25.1-36.2 1.8-6.8 2.1-25.3.4-30.1-.8-2.1-1.2-3.9-.9-3.9.8 0-7.3-14.8-9-16.6-.8-.7-2.3-2.4-3.3-3.7-3-3.8-11.5-10.3-17-13.2-18.1-9.3-33.8-5.4-44.7 11.2-2.8 4.2-6.3 7.1-9.4 7.8-.9.2-3.2.9-5.1 1.4-3.2 1-29.1.8-33.6-.2-1.1-.2-4.2-.8-7-1.1-2.7-.4-6.3-.9-8-1.2-3.2-.5-24.9-4.4-27.5-4.9-.8-.2-3.6-.7-6.1-1l-4.6-.7-1.3-5.7c-5.9-26.2-10.4-41.4-15.3-51.9-1.9-4.2-1.9-4.3-.1-6 4.9-4.4 28.8-24.5 36.4-30.5 4.7-3.8 9.3-7.5 10.3-8.3.9-.8 2.1-1.4 2.6-1.4s1.1-.3 1.3-.8c.5-1.2 8.1-5.8 14.3-8.7 7.9-3.6 14.7-3.7 23.9-.1 12.4 4.8 21.9 3.9 30.2-2.9 5.6-4.6 8.1-8.2 10.6-15.3 8.5-24.2-6.8-60.7-32.7-77.4-18.4-12-37.7-9.3-46.9 6.5-2.5 4.3-5.4 13-6 18.5-1.9 14.3-20.1 25.6-70.1 43.3-6 2.2-11.9 4.3-13 4.8-8.2 3.5-6 4.7-23.8-13.2-8.9-8.9-19.4-18.7-23.3-21.7l-7.1-5.5 4.9-14c15.8-45 24.5-63.9 33.6-73 3.6-3.7 9.8-6.5 14.4-6.5 17.6-.1 32.2-19.8 27.9-37.8-4.7-19.6-24.9-38.7-50.1-47.2-7.6-2.6-24.3-3.6-30.5-1.9-12.9 3.6-21.2 11.2-23.1 21.4-1.5 8.1-.8 12.7 3.2 21.8 3.1 7 3.2 11.5.5 18.7-5 13.3-15.8 27.9-53.1 71.8l-2.9 3.4-10.3-4c-12.7-5-25.8-8.8-36.1-10.6-4.3-.8-8-1.6-8.3-1.9-.3-.2-.7-1.7-1-3.3-.2-1.6-1.5-8.8-2.9-15.9-1.3-7.2-2.7-14.8-3-17-.6-4.4-1.1-7.2-2.5-15.5-2.8-16.2-3-34.9-.6-43.4 1.6-5.3 7-12.6 9.4-12.6 1.8 0 11.8-10.6 13.7-14.5 2.8-5.8 2.7-17.5-.2-23.5-4.8-10-19.3-20.5-33.8-24.5-8.3-2.2-27.3-2.8-35.5-1.1zm32 223c9.9.8 14.7 1.4 17.7 2 1.5.3 4.4.8 6.3 1.1 8 1.3 30.2 7.6 40.2 11.5 64.4 25 114.9 78.2 135.8 143.1 3.6 11.1 7.7 28.3 8.6 35.9.3 3 .8 5.7.9 6 .6 1 1.8 21.4 1.8 30-.1 105.4-70.8 196.8-172.3 222.9-10.7 2.7-13.3 3.3-22.2 4.6-1.8.3-6 .9-9.3 1.4-6.1 1-51.3.8-55-.1-1.1-.3-4.6-.9-7.7-1.2-13.3-1.6-39.5-9.1-56.3-16.3-19.5-8.3-41.3-22-58-36.2-6.4-5.5-24.8-24.3-28-28.7-1.7-2.1-3.2-4.1-3.5-4.4-4.6-4.5-17.9-25.7-24.5-39-17-34.1-24-65.3-23.9-105.5.3-79.7 41.2-151.9 110.5-194.7 6.2-3.9 23.7-12.7 33.4-16.8 2.6-1.2 19.5-7.1 21.5-7.5 13.2-3.2 24.6-5.6 29-6.1 3-.3 5.8-.8 6.1-1 .4-.2 5.3-.7 11-1 5.7-.3 10.5-.7 10.6-.8.4-.4 20.4.3 27.3.8z"/><path d="M459 304.1v50.2l8.8-.6c4.8-.4 9.8-.9 11.2-1.1 1.4-.3 4.3-.7 6.5-1.1 10.6-1.6 31.5-7.6 34.4-9.9.8-.6 1.6-1 1.8-.8.2.2 1.9-.3 3.9-1 4.4-1.6 4.3-2.5-1.7-16.5-9.1-21.6-21.1-40.2-33.4-51.6-8.7-8.1-25.3-17.7-30.5-17.7-.6 0-1 18.7-1 50.1zM433.6 256.8c-1 .2-4 1.5-6.5 3-16.3 8.9-28.6 22-40.9 43.2-6.5 11.2-16.6 33.6-15.7 35 .9 1.5 21.5 8.4 31.5 10.5.8.2 3.6.8 6.3 1.4 2.6.6 6.3 1.3 8.2 1.6 1.9.2 5 .6 6.7.9 1.8.3 5.4.8 8.1 1.1l4.7.6v-5.3c.3-24.8.1-92-.2-92.2-.1-.1-1.2 0-2.2.2zM517 265.5c0 .3 2 3.1 4.4 6.2 10.7 14.2 21.9 33.9 28.6 50.5 1.3 3.2 2.6 5.8 3 5.8.3 0 4.6-2.9 9.5-6.6 8.2-5.9 11.1-8.2 19.4-15.1l2.6-2.2-2.5-2.3c-13.4-12.2-36.1-26.3-51-31.7-1.9-.7-4.4-1.7-5.5-2.1-3.7-1.5-8.5-2.9-8.5-2.5zM374.5 269.5c-14.3 6.3-25.9 12.6-40 22.1-13.7 9.1-17.3 12.1-16 13.1 16.2 12.4 29.8 21.3 32.3 21.3.6 0 2-3.3 3.2-7.3 4.2-13.7 15.6-35.2 23.9-44.9 6.9-8 6.8-7.8 5.4-7.8-.5 0-4.4 1.6-8.8 3.5zM297.3 321.8c-16.5 17.2-34.1 46.9-42.7 72.2-5.4 16-9.5 36.8-10 50.5l-.1 3h40.8c35.4 0 40.8-.2 41.1-1.5.3-.8.7-5.6 1.1-10.5.3-5 .8-10.6 1-12.5.2-1.9.7-6 1-9.1.3-3.1.7-6.5.9-7.5.2-1.1.7-4.4 1.1-7.4.7-5.7 4.8-26.9 6.4-33 .5-1.9 1.6-6.2 2.5-9.5.9-3.2 1.6-6.3 1.6-6.7 0-.4-2.1-1.9-4.7-3.5-9.4-5.4-24.9-15.8-31-20.8-.7-.6-1.8-1.5-2.5-2-.7-.6-2.1-1.6-3-2.3-1.4-1.1-1.9-1-3.5.6zM595.5 324.2c-5.7 5.1-13.1 10.4-28.3 20.1-4.5 2.9-8 5.5-7.8 5.8 1.2 1.2 8 30.4 9.2 39.5.2 2.1.6 4.9.9 6.3.2 1.4.7 5.3 1.1 8.6.3 3.3.8 7.3 1 9 .2 1.6.6 9.7 1 18 .3 8.2.8 15.2 1.1 15.5.2.3 18.7.5 41 .5h40.6l-.7-8a189 189 0 0 0-24.5-79.2c-6.1-10.6-11.4-18.7-16.1-24.7-3.5-4.5-13.1-15.6-13.4-15.6-.2 0-2.5 1.9-5.1 4.2zM362.7 360.7c-1.2 3.9-4.8 20.2-5.2 23.3-.2.8-.5 3.1-.9 5-1 5.2-2.4 14-3 18-.2 1.9-.8 5.7-1.1 8.5-.4 2.7-.8 6.1-1 7.5-.4 2.5-1.6 17.4-1.9 22l-.1 2.5h42.8c23.6 0 43.1-.4 43.4-.8.7-1.1.6-70.5-.1-71.6-.3-.5-4.1-1.2-8.3-1.6-4.3-.4-8.5-.8-9.3-1-.8-.2-3.3-.6-5.5-.9-15.1-2.3-36.2-7.7-48-12.2-.7-.3-1.6.3-1.8 1.3zM531.5 362.6c-18 6.8-46.6 12.9-64.5 13.9-2.5.2-5.3.3-6.2.4-1.7.1-1.8 2.5-1.8 35.4v35.2h45.5c44.8 0 45.5 0 45.6-2 .6-15.3-2.3-43.1-6.2-59.5-2-8.4-7.2-25-7.8-24.9-.3 0-2.4.7-4.6 1.5zM244.5 474.5c.2 2.2.7 6.7 1 10 .4 3.2.8 6.7 1 7.6.2.9.6 3.4.9 5.4 1.4 8.3 6.3 25.7 9.7 34 .7 1.6 1.3 3.7 1.5 4.5.2.8 2.8 6.4 5.9 12.4 8.2 16.1 20.1 33.6 30.8 45.5l3.8 4.2 2.8-2.3c1.5-1.3 4-3.2 5.5-4.3 1.6-1.1 3.3-2.5 4-3.1 1.4-1.3 20.9-14 27.1-17.7 3.4-2 4.4-3.1 3.7-4-2-2.6-9.6-35.9-10.8-47.2-.1-1.1-.6-5.6-1.2-10-1.5-11.1-2.9-25-3.3-33.8-.1-2.6-.5-4.8-.8-4.8-.3-.1-18.9-.3-41.4-.3l-40.7-.2.5 4.1zM349.6 471c-.2.3-.2 1.4-.1 2.5s.5 5.6.9 10 .9 9.1 1.1 10.5c.4 2.9 1.2 9.5 2 16 .3 2.5.7 5.6 1 7 .3 1.4.7 4.1 1 6 1.9 11.9 6.8 34.7 7.8 35.6.2.3 3.3-.6 6.8-1.9 11.2-4.2 31.7-9 47.4-11.2 2.3-.3 5.1-.7 6.4-1 1.2-.2 4.3-.5 6.7-.6 2.5-.2 4.7-.6 5-1.1.4-.6.7-37.6.5-63.9l-.1-8.5h-43.1c-23.7 0-43.2.3-43.3.6zM459.5 470.9c-.8.8-.5 72.1.3 72.2.4.1 3 .2 5.7.3 2.8.2 8.4.6 12.5 1 6.5.7 10.6 1.4 25 4.2 4.1.8 15.9 4.4 24.9 7.5 4.6 1.6 8.5 2.8 8.6 2.7 1.5-1.6 8.6-30.5 10.1-40.8.2-1.9.7-5.1 1-7 .6-3.4.7-4.9 1.8-17 .4-5.3.8-17.3.7-21.5-.1-2.1-.5-2.1-45.1-2.1-24.8 0-45.3.2-45.5.5zM576.9 472.8c-1.1.2-1.8 3.4-2.8 13.5-.7 7.3-1.4 14.3-1.6 15.7-.4 2.9-2.4 15.4-3 19-.3 1.4-1.2 6.3-2 11-1.8 10.5-7.4 36-8 37.1-.6.9.9 2 14.4 10.5 5.7 3.5 14.6 9.7 19.8 13.6 9.4 7 9.6 7.1 11.2 5.1 1.7-2.3 7.5-9.1 10.5-12.6 4.2-5 15.3-22.8 20.6-33.1 4.8-9.5 7.4-15.8 13-31.6 1.1-3.1 4.6-17.2 5.4-22 .3-1.9.8-4.6 1.1-6 .3-1.4.8-5.4 1.1-9 .2-3.6.7-7.5.9-8.8.4-1.6.1-2.2-1.2-2.3-4.6-.3-78.1-.4-79.4-.1zM429.6 566.7c-.1.1-2.4.5-5.1.8-2.8.3-7.3 1-10.1 1.6-2.8.5-6.4 1.2-8 1.5-1.6.2-6.3 1.4-10.4 2.5-4.1 1.2-7.9 2.2-8.5 2.3-.5.2-1.9.6-3 1-10.7 4-13.1 5-13.8 5.6-1.6 1.4 12.3 30 21.1 43.5 7.1 10.7 24.1 28.7 30.2 32 8.6 4.5 13.2 6.6 13.6 6.2.4-.4.7-79.4.5-94.9-.1-2.4-.5-2.7-3.2-2.5-1.7.1-3.1.3-3.3.4zM459 616.4v50.5l5.3-1.5c25.7-7.6 46.7-33.1 63.1-76.7l2.6-6.8-6.5-3c-16.5-7.5-33-11.2-54.8-12.5l-9.7-.5v50.5zM333.9 601.3c-6.4 5.1-13.2 10.5-15.2 12.1-4.1 3.3-4.5 2.6 5.8 10.7 10 7.9 17.8 13 28.6 18.7 8.5 4.5 28.7 12.8 29.4 12 .2-.2-2.6-4.1-6.1-8.8-10-13.4-19-29.4-25.8-45.9-1.7-4.1-3.6-7.6-4.1-7.7-.6-.2-6.2 3.8-12.6 8.9zM548.5 597.6c-.8 2-1.5 3.8-1.5 4 0 .2-2.5 5.6-5.6 12-7 14.6-14.3 27.2-20.5 35.1l-4.9 6.2 3.8-1.4c10.6-3.8 37.3-17.1 39.2-19.5.3-.4 1.2-.9 2-1.2 2.8-1.1 23-15.8 23-16.8 0-.6-.3-1-.7-1-.5 0-2.1-1.1-3.8-2.5-3.5-2.9-3.9-3.2-8.5-6.6-4.2-3.1-19.1-11.9-20.2-11.9-.4 0-1.5 1.6-2.3 3.6z"/></svg>