<svg id="Layer_2" data-name="Layer 2" xmlns="http://www.w3.org/2000/svg" viewBox="0 0 180 180"><defs><style>.cls-1{fill:none;stroke:#2d8de1;stroke-miterlimit:10;stroke-width:4.3244px;}</style></defs><line class="cls-1" x1="43.5022" y1="129.9575" x2="88.7639" y2="90.3641"/><line class="cls-1" x1="122.1379" y1="143.5863" x2="45.5827" y2="136.4097"/><line class="cls-1" x1="53.8339" y1="82.9166" x2="51.3552" y2="52.5803"/><line class="cls-1" x1="114.1435" y1="87.9076" x2="145.6777" y2="106.2074"/><line class="cls-1" x1="88.6461" y1="69.842" x2="62.0024" y2="47.0777"/><path class="cls-1" d="M153.4717,102.7974A66.4328,66.4328,0,0,0,146.2328,60.14a67.2035,67.2035,0,0,0-4.6374-7.3149"/><path class="cls-1" d="M134.655,139.4015a66.5805,66.5805,0,0,0,14.9985-22.7494"/><path class="cls-1" d="M43.0309,141.7373a66.7637,66.7637,0,0,0,76.4946,8.9393c1.3361-.7272,2.6234-1.5072,3.8888-2.31"/><path class="cls-1" d="M38.2414,47.1351a66.7611,66.7611,0,0,0-9.2529,76.8338c.9058,1.6636,1.8865,3.2592,2.9088,4.8138"/><path class="cls-1" d="M129.9128,40.4228A66.7981,66.7981,0,0,0,63.9243,29.6641"/><line class="cls-1" x1="85.2436" y1="83.3766" x2="61.4421" y2="88.5677"/><line class="cls-1" x1="51.8565" y1="96.8141" x2="40.1026" y2="127.5932"/><line class="cls-1" x1="130.0532" y1="52.0402" x2="111.9407" y2="69.2394"/><line class="cls-1" x1="106.9283" y1="94.2992" x2="126.2677" y2="137.7156"/><circle class="cls-1" cx="136.2756" cy="46.1315" r="8.5872"/><circle class="cls-1" cx="37.0416" cy="135.609" r="8.5872"/><circle class="cls-1" cx="129.3182" cy="144.2594" r="7.2194"/><circle class="cls-1" cx="151.9217" cy="109.8309" r="7.2194"/><circle class="cls-1" cx="50.0728" cy="36.8852" r="15.6908"/><circle class="cls-1" cx="54.4207" cy="90.099" r="7.2194"/><circle class="cls-1" cx="100.574" cy="80.033" r="15.6908"/></svg>