<svg xmlns="http://www.w3.org/2000/svg" viewBox="0 0 180 180"><defs><style>.cls-1,.cls-2,.cls-3{fill:none;stroke:#2d8de1;stroke-width:4.3244px;}.cls-1,.cls-2{stroke-miterlimit:10;}.cls-2,.cls-3{stroke-linecap:round;}.cls-3{stroke-linejoin:round;}</style></defs><g id="Layer_1" data-name="Layer 1"><line class="cls-1" x1="25.4357" y1="69" x2="154.5643" y2="69"/><path class="cls-1" d="M172.31,131.4A22.0953,22.0953,0,0,0,130.0262,144a22.3479,22.3479,0,0,0,.706,2.3775A22.0966,22.0966,0,1,0,172.31,131.4Z"/><path class="cls-1" d="M133,41V31.5148a5.3876,5.3876,0,0,0-5.4154-5.3592h-3.1692A5.3876,5.3876,0,0,0,119,31.5148V41"/><path class="cls-1" d="M61,41V31.4154A5.4155,5.4155,0,0,0,55.5846,26H52.4154A5.4155,5.4155,0,0,0,47,31.4154V41"/><path class="cls-1" d="M155.5,117.1556V54.9971A13.9971,13.9971,0,0,0,141.5029,41H133v7.5845A5.4155,5.4155,0,0,1,127.5846,54h-3.1692A5.4155,5.4155,0,0,1,119,48.5845V41H61v7.5845A5.4155,5.4155,0,0,1,55.5846,54H52.4154A5.4155,5.4155,0,0,1,47,48.5845V41H38.4971A13.9971,13.9971,0,0,0,24.5,54.9971v75.0058A13.9971,13.9971,0,0,0,38.4971,144h91.5291"/><path class="cls-2" d="M145.6441,130.1352a10.463,10.463,0,1,0,15.7146,5.1091,10.81,10.81,0,0,0-4.4033-4.9441"/><polyline class="cls-3" points="154.202 134.85 153.96 129.268 159.546 127.537"/></g></svg>