<?xml version="1.0" encoding="utf-8"?>
<!-- Generator: Adobe Illustrator 24.0.0, SVG Export Plug-In . SVG Version: 6.00 Build 0)  -->
<svg version="1.1" xmlns="http://www.w3.org/2000/svg" xmlns:xlink="http://www.w3.org/1999/xlink" x="0px" y="0px"
	 viewBox="0 0 20 20" style="enable-background:new 0 0 20 20;" xml:space="preserve">
<style type="text/css">
	.st0{display:none;}
	.st1{display:inline;}
	.st2{fill:none;stroke:#231F20;stroke-width:2;stroke-linecap:round;stroke-miterlimit:10;}
	.st3{display:inline;fill:none;stroke:#231F20;stroke-width:2;stroke-linecap:round;stroke-miterlimit:10;}
	.st4{fill:#FFFFFF;}
	.st5{fill:#231F20;}
	.st6{fill:#515252;}
</style>
<g id="Layer_1" class="st0">
	<g class="st1">
		<line class="st2" x1="2" y1="10" x2="18" y2="10"/>
	</g>
	<line class="st3" x1="10" y1="2" x2="10" y2="18"/>
	<g class="st1">
		<circle class="st4" cx="10" cy="10" r="6.5"/>
		<path class="st5" d="M10,4c3.3,0,6,2.7,6,6s-2.7,6-6,6s-6-2.7-6-6S6.7,4,10,4 M10,3c-3.9,0-7,3.1-7,7s3.1,7,7,7s7-3.1,7-7
			S13.9,3,10,3L10,3z"/>
	</g>
	<g id="Layer_3" class="st1">
		<circle cx="10.1" cy="13.1" r="1.9"/>
		<circle cx="9" cy="6" r="1"/>
		<circle cx="6.4" cy="11.4" r="1.4"/>
		<circle cx="7" cy="8" r="1"/>
		<circle cx="12.4" cy="7.6" r="1.4"/>
		<circle cx="10" cy="9" r="1"/>
		<circle cx="13" cy="11" r="1"/>
	</g>
</g>
<g id="Layer_2">
	<g>
		<g>
			<g>
				<path d="M3.6,2.4C3.6,2.4,3.6,2.4,3.6,2.4C3.6,2.4,3.6,2.3,3.6,2.4C3.6,2.4,3.6,2.4,3.6,2.4z"/>
				<path d="M3.4,2.5C3.5,2.5,3.5,2.5,3.4,2.5C3.5,2.5,3.5,2.5,3.4,2.5C3.5,2.5,3.5,2.5,3.4,2.5z"/>
				<path d="M3.4,2.5C3.4,2.5,3.4,2.5,3.4,2.5C3.4,2.5,3.4,2.5,3.4,2.5z"/>
				<path d="M3.7,2.3C3.7,2.3,3.7,2.3,3.7,2.3C3.7,2.3,3.7,2.3,3.7,2.3C3.7,2.3,3.7,2.3,3.7,2.3z"/>
				<path class="st6" d="M1.7,11.1v-0.3h1.9C3.7,12,4.2,13.1,4.9,14l-1.3,1.3l-0.2-0.2c-0.7-0.7-1.9,0.4-1.1,1.1
					c0,0,0.1,0.1,0.1,0.1c0,0,0,0,0,0c0,0,0,0,0,0c0,0,0,0,0,0c0,0,0,0,0,0c0,0,0,0,0,0c0,0,0,0,0,0c0,0,0.1,0.1,0.2,0.2
					c0,0,0,0,0,0c0.2,0.2,0.6,0.6,1.2,1.2c0.7,0.7,1.9-0.4,1.1-1.1l-0.2-0.2L6,15.2c0.9,0.7,2,1.2,3.3,1.4v1.9H9c-1,0-1,1.6,0,1.6
					h2.2c1,0,1-1.6,0-1.6h-0.3v-1.9c1.2-0.1,2.3-0.6,3.3-1.4l1.3,1.3l-0.2,0.2c-0.7,0.7,0.4,1.9,1.1,1.1c0.1-0.1,0.2-0.2,0.2-0.2
					c0.2-0.2,0.6-0.6,1.4-1.4c0.7-0.7-0.4-1.9-1.1-1.1l-0.2,0.2L15.3,14c0.7-0.9,1.2-2,1.4-3.3h1.9v0.3c0,1,1.6,1,1.6,0V8.9
					c0-1-1.6-1-1.6,0v0.3h-1.9C16.5,8,16,6.9,15.3,6l1.3-1.3l0.2,0.2c0.7,0.7,1.9-0.4,1.1-1.1c0,0-0.1-0.1-0.1-0.1
					c-0.2-0.2-0.3-0.3-0.3-0.3c-0.2-0.2-0.6-0.6-1.2-1.2c-0.7-0.7-1.9,0.4-1.1,1.1l0.2,0.2l-1.3,1.3c-0.9-0.7-2-1.2-3.3-1.4V1.6h0.3
					c1,0,1-1.6,0-1.6H9c-1,0-1,1.6,0,1.6h0.3v1.9C8.1,3.6,7,4.1,6,4.8L4.7,3.5l0.2-0.2c0.7-0.7-0.4-1.9-1.1-1.1c0,0-0.1,0.1-0.1,0.1
					c0,0,0,0,0,0c0,0,0,0,0,0c0,0,0,0,0,0c0,0-0.1,0.1-0.1,0.1c0,0,0,0-0.1,0.1C3.2,2.8,2.8,3.1,2.2,3.7C1.5,4.5,2.6,5.6,3.4,4.8
					l0.2-0.2L4.9,6C4.2,6.9,3.7,8,3.6,9.2H1.7V8.9c0-1-1.6-1-1.6,0v2.2C0.1,12.2,1.7,12.2,1.7,11.1z M8.7,9.5
					c0.9,0.4,4.4,2.7,4.4,3.6c0,0.9-3.8-0.4-4.5-0.9c-0.8-0.6-3-2.6-3-3.5C5.6,7.8,7.9,9.1,8.7,9.5z M8.5,6c0.6,0,2.5,0.7,3.3,1.2
					C13,8.1,14.5,10,13.9,10S11.1,9.2,10,8.4C9.1,7.7,7.9,6,8.5,6z"/>
				<path d="M3.6,2.3C3.6,2.3,3.6,2.3,3.6,2.3C3.6,2.3,3.6,2.3,3.6,2.3C3.6,2.3,3.6,2.3,3.6,2.3z"/>
			</g>
		</g>
	</g>
</g>
</svg>
