<svg xmlns="http://www.w3.org/2000/svg" viewBox="0 0 200 200"><defs><style>.a{fill:#1e0a46;}.b{fill:none;stroke:#2d8de1;stroke-miterlimit:10;stroke-width:2.52px;}</style></defs><title>CovidAtlas-Logo-Final</title><path class="a" d="M41.19,152.23h3.36l9.7,26.34h-3.8l-2.43-7H37.5l-2.51,7H31.38ZM47,168.54l-4.17-12h0l-4.25,12Z"/><path class="a" d="M68.28,155.36H60.05v-3.1h20v3.1H71.9v23.21H68.28Z"/><path class="a" d="M90.9,152.26h3.62v23.1h13.32v3.21H90.9Z"/><path class="a" d="M127.25,152.23h3.36l9.71,26.34h-3.8l-2.44-7H123.56l-2.51,7h-3.61Zm5.8,16.31-4.17-12h0l-4.24,12Z"/><path class="a" d="M148.92,172.63l3.28-1.25c1,2.84,3.62,4.46,7,4.46,3.21,0,5.9-1.47,5.9-4.32,0-2.51-1.7-3.58-3.91-4.24l-4.8-1.29c-3.61-1-6-2.8-6-6.86,0-4.54,3.8-7.35,8.67-7.35,4.17,0,7.78,1.63,9.07,5.21L165,158.24c-1.11-2.25-3.18-3.39-6-3.39-2.51,0-5.05,1.21-5.05,4,0,2,1.44,3.25,4.2,4l4.84,1.33c3.1.81,5.64,2.69,5.64,7,0,4.61-3.91,7.78-9.59,7.78C154.23,179,150.17,176.87,148.92,172.63Z"/><path class="a" d="M31.58,129.07v-8c0-6.46,5.24-9.67,11.07-9.67,5.09,0,10.66,2.58,10.66,8.67v1.22h-6.2v-.59c0-2.77-2.32-3.92-4.35-3.92-2.33,0-4.58,1.22-4.58,4.21v8c0,2.7,2,4.25,4.65,4.25,2,0,4.28-1.19,4.28-3.92v-.62h6.2v1.29c0,6.05-5.42,8.63-10.51,8.63C37,138.55,31.58,135.64,31.58,129.07Z"/><path class="a" d="M63.8,128.92v-7.6c0-6.68,5.46-10,11.1-10,5.87,0,11.29,3.13,11.29,9.92v7.31c0,6.86-5.64,10-11.14,10C69.15,138.55,63.8,135.71,63.8,128.92Zm15.79-.11V121c0-2.77-2.18-4.29-4.65-4.29S70.4,118,70.4,121.06v7.71c0,2.81,2,4.36,4.65,4.36C77.38,133.13,79.59,131.8,79.59,128.81Z"/><path class="a" d="M94.84,111.8h6.78l5.17,18.56h.11l5.31-18.56h6.28l-8.56,26.38h-6.76Z"/><path class="a" d="M128.2,111.8h6.6v26.31h-6.6Z"/><path class="a" d="M146.69,111.8h11c5.87,0,10.74,3.14,10.74,9.26v7.42c0,6.53-5.17,9.63-10.7,9.63h-11Zm10.62,20.92c2.4,0,4.5-1.51,4.5-4.2v-7.24c0-2.54-2.06-4.09-4.68-4.09h-3.84v15.53Z"/><line class="b" x1="72.89" y1="77.58" x2="99.28" y2="54.5"/><line class="b" x1="118.74" y1="85.53" x2="74.1" y2="81.35"/><line class="b" x1="78.91" y1="50.15" x2="77.47" y2="32.47"/><line class="b" x1="114.08" y1="53.07" x2="132.46" y2="63.74"/><line class="b" x1="99.21" y1="42.53" x2="83.68" y2="29.26"/><path class="b" d="M137,61.75a38.78,38.78,0,0,0-4.22-24.88,39.47,39.47,0,0,0-2.71-4.26"/><path class="b" d="M126,83.09a38.72,38.72,0,0,0,8.74-13.26"/><path class="b" d="M72.61,84.45a38.92,38.92,0,0,0,44.61,5.21c.77-.42,1.53-.87,2.26-1.34"/><path class="b" d="M69.82,29.29a38.92,38.92,0,0,0-5.39,44.8c.52,1,1.1,1.9,1.69,2.81"/><path class="b" d="M123.27,25.38A38.94,38.94,0,0,0,84.8,19.1"/><path class="b" d="M97.23,50.42l-13.88,3"/><path class="b" d="M77.76,58.26,70.91,76.21"/><path class="b" d="M123.35,32.15l-10.56,10"/><path class="b" d="M109.87,56.79l11.28,25.32"/><circle class="b" cx="126.98" cy="28.71" r="5.01"/><circle class="b" cx="69.12" cy="80.88" r="5.01"/><circle class="b" cx="122.93" cy="85.92" r="4.21"/><circle class="b" cx="136.11" cy="65.85" r="4.21"/><circle class="b" cx="76.72" cy="23.31" r="9.15"/><circle class="b" cx="79.25" cy="54.34" r="4.21"/><circle class="b" cx="106.17" cy="48.47" r="9.15"/></svg>