<svg id="Layer_1" data-name="Layer 1" xmlns="http://www.w3.org/2000/svg" viewBox="0 0 139.7657 139.0831">
    <defs>
        <style>
            .cls-1 {
              fill: rgba(45, 141, 225, 0.1);
            }
        </style>
    </defs><path
        class="cls-1"
        d="M146.8712,94.581a7.9573,7.9573,0,0,0-5.1111-4.89,66.8059,66.8059,0,0,0-7.4172-42.4591,67.8918,67.8918,0,0,0-4.27-6.799,9.3344,9.3344,0,1,0-12.8007-13.5879A67.5942,67.5942,0,0,0,51.7776,16.1723a16.4313,16.4313,0,1,0-27.0895,18.423A67.5379,67.5379,0,0,0,15.78,111.7782c.7393,1.358,1.5844,2.7649,2.5573,4.2715a9.3272,9.3272,0,0,0,12.1636,14.1428,67.5854,67.5854,0,0,0,76.8338,8.5936c1.0353-.5632,2.1159-1.2008,3.3406-1.9654a7.9606,7.9606,0,0,0,12.4358-9.9349,66.8952,66.8952,0,0,0,14.4132-21.8547,7.8774,7.8774,0,0,0,1.8426.2247,7.98,7.98,0,0,0,7.5039-10.6748ZM140.29,89.3752a7.919,7.919,0,0,0-7.4,3.2776l-30.3-17.5835c.1025-.1972.2172-.3857.3123-.5879A16.36,16.36,0,0,0,100.4391,56.73l17.067-16.2066a9.2689,9.2689,0,0,0,11.3809.8315,65.4267,65.4267,0,0,1,11.4033,48.02Zm-31.34,40.8483L33.8185,123.18a9.21,9.21,0,0,0-1.8295-5.6814L76.1662,78.8547a16.41,16.41,0,0,0,17.4306,4.0974c.1433-.0517.2775-.1191.4188-.1743L112.75,124.8349A7.984,7.984,0,0,0,108.95,130.2235Zm-59.44-94.659L75.0669,57.4a16.459,16.459,0,0,0-3.2345,12.8481l-22.3773,4.88c-.03-.093-.0516-.1868-.0849-.2794A7.9779,7.9779,0,0,0,41.9738,69.59l-2.3666-28.955a16.5353,16.5353,0,0,0,3.4886-.8311A16.3207,16.3207,0,0,0,49.5107,35.5645ZM47.9581,75.3569a6.4695,6.4695,0,1,1-8.2793-3.8936A6.476,6.476,0,0,1,47.9581,75.3569ZM41.879,85.52a7.9638,7.9638,0,0,0,7.8987-8.9267l22.3711-4.8784c.12.4489.2477.8972.4079,1.3422a16.3684,16.3684,0,0,0,2.6169,4.673L30.9944,116.3754a9.3762,9.3762,0,0,0-2.4837-1.736L39.7486,85.2122A7.9348,7.9348,0,0,0,41.879,85.52ZM93.089,81.54a14.94,14.94,0,1,1,8.456-7.6973A14.957,14.957,0,0,1,93.089,81.54ZM121.07,26.2089a7.8374,7.8374,0,1,1-4.7168,10.0293A7.8057,7.8057,0,0,1,121.07,26.2089ZM116.2748,27.97a9.276,9.276,0,0,0,.1939,11.47L99.4037,55.6445a16.3731,16.3731,0,0,0-23.3654.6118L50.482,34.4211a16.4312,16.4312,0,0,0,2.51-15.657c-.1546-.4291-.3365-.84-.5224-1.2479A66.094,66.094,0,0,1,116.2748,27.97ZM24.004,17.9775A14.9419,14.9419,0,1,1,23.4679,29.4,14.8406,14.8406,0,0,1,24.004,17.9775Zm-6.9053,93.0839a66.0336,66.0336,0,0,1,8.5862-75.3276,16.4423,16.4423,0,0,0,11.8279,5.0523c.2,0,.4-.0187.6005-.0261L40.48,69.7113a7.9579,7.9579,0,0,0-2.1358,14.9773L27.1078,114.1108a9.2452,9.2452,0,0,0-7.5666,1.0371C18.6126,113.7066,17.8045,112.36,17.0987,111.0614ZM27.15,130.4325a7.8371,7.8371,0,1,1,4.7158-10.0293A7.8444,7.8444,0,0,1,27.15,130.4325Zm79.4688,7.0362A66.1159,66.1159,0,0,1,31.57,129.1365a9.3987,9.3987,0,0,0,2.1089-4.462l75.13,7.043a7.8227,7.8227,0,0,0,1.0018,3.8748C108.6407,136.3212,107.6068,136.93,106.6183,137.4687Zm12.3437.3281a6.4694,6.4694,0,1,1,3.8936-8.2793A6.4764,6.4764,0,0,1,118.962,137.7968Zm3.13-12.0139a7.9848,7.9848,0,0,0-7.9821-1.5835L95.3885,82.1723a16.2562,16.2562,0,0,0,6.4524-5.8036l30.2959,17.58a7.9642,7.9642,0,0,0,3.8438,10.5451c.04.0188.0817.0312.1219.0493A65.4045,65.4045,0,0,1,122.0916,125.7829Zm19.4739-22.4148a6.4693,6.4693,0,1,1,3.8936-8.2793A6.4179,6.4179,0,0,1,141.5655,103.3681Z"
        transform="translate(-7.577 -7.8964)"/></svg>
