<svg xmlns="http://www.w3.org/2000/svg" viewBox="0 0 200 200"><defs><style>.a{fill:none;stroke:#2d8de1;stroke-miterlimit:10;stroke-width:4.32px;}</style></defs><title>CovidAtlas-Logo-Final</title><line class="a" x1="53.5" y1="138.96" x2="98.76" y2="99.36"/><line class="a" x1="132.14" y1="152.59" x2="55.58" y2="145.41"/><line class="a" x1="63.83" y1="91.92" x2="61.36" y2="61.58"/><line class="a" x1="124.14" y1="96.91" x2="155.68" y2="115.21"/><line class="a" x1="98.65" y1="78.84" x2="72" y2="56.08"/><path class="a" d="M163.47,111.8a66.4,66.4,0,0,0-7.24-42.66,68,68,0,0,0-4.63-7.31"/><path class="a" d="M144.66,148.4a66.42,66.42,0,0,0,15-22.75"/><path class="a" d="M53,150.74a66.78,66.78,0,0,0,76.5,8.94c1.33-.73,2.62-1.51,3.88-2.31"/><path class="a" d="M48.24,56.14A66.75,66.75,0,0,0,39,133c.9,1.66,1.89,3.26,2.91,4.81"/><path class="a" d="M139.91,49.42a66.81,66.81,0,0,0-66-10.76"/><path class="a" d="M95.24,92.38l-23.8,5.19"/><path class="a" d="M61.86,105.81,50.1,136.59"/><path class="a" d="M140.05,61l-18.11,17.2"/><path class="a" d="M116.93,103.3l19.34,43.42"/><circle class="a" cx="146.28" cy="55.13" r="8.59"/><circle class="a" cx="47.04" cy="144.61" r="8.59"/><circle class="a" cx="139.32" cy="153.26" r="7.22"/><circle class="a" cx="161.92" cy="118.83" r="7.22"/><circle class="a" cx="60.07" cy="45.89" r="15.69"/><circle class="a" cx="64.42" cy="99.1" r="7.22"/><circle class="a" cx="110.57" cy="89.03" r="15.69"/></svg>