<svg xmlns="http://www.w3.org/2000/svg" viewBox="0 0 630.34 118.88">
  <defs>
    <style>
      .cls-1 {
        fill: #fff;
      }

      .cls-2 {
        fill: none;
        stroke: #2d8de1;
        stroke-miterlimit: 10;
        stroke-width: 3.62px;
      }
    </style>
  </defs>
  <g id="Layer_2" data-name="Layer 2">
    <g id="Layer_1_copy" data-name="Layer 1 copy">
      <path class="cls-1"
        d="M414.21,37.11h5.7l16.46,44.68h-6.45L425.79,70H408L403.7,81.79h-6.13ZM424,64.77,417,44.49h-.06l-7.2,20.28Z" />
      <path class="cls-1" d="M460.16,42.43h-14V37.17h34v5.26H466.29V81.79h-6.13Z" />
      <path class="cls-1" d="M498.53,37.17h6.13V76.35h22.59v5.44H498.53Z" />
      <path class="cls-1"
        d="M560.17,37.11h5.7l16.46,44.68h-6.45L571.75,70H553.92l-4.26,11.83h-6.13ZM570,64.77l-7.07-20.28h-.06l-7.2,20.28Z" />
      <path class="cls-1"
        d="M596.92,71.72l5.57-2.13c1.75,4.82,6.13,7.57,11.83,7.57,5.44,0,10-2.5,10-7.32,0-4.26-2.88-6.07-6.63-7.2l-8.14-2.19c-6.13-1.69-10.14-4.75-10.14-11.64,0-7.7,6.45-12.45,14.71-12.45,7.07,0,13.2,2.75,15.39,8.82l-5.32,2.13c-1.87-3.82-5.38-5.76-10.2-5.76-4.25,0-8.57,2.07-8.57,6.76,0,3.38,2.44,5.51,7.13,6.82l8.2,2.25c5.26,1.38,9.58,4.57,9.58,12,0,7.82-6.64,13.2-16.28,13.2C605.93,82.54,599.05,78.91,596.92,71.72Z" />
      <path class="cls-1"
        d="M0,66.46V52.82c0-11,8.89-16.4,18.77-16.4,8.64,0,18.09,4.38,18.09,14.71v2.06H26.35v-1c0-4.69-4-6.63-7.39-6.63-3.94,0-7.76,2.06-7.76,7.13V66.21c0,4.57,3.32,7.2,7.89,7.2,3.44,0,7.26-2,7.26-6.64V65.71H36.86V67.9c0,10.26-9.2,14.64-17.84,14.64C9.2,82.54,0,77.6,0,66.46Z" />
      <path class="cls-1"
        d="M54.64,66.21V53.32c0-11.33,9.26-16.9,18.84-16.9,10,0,19.15,5.32,19.15,16.84V65.65c0,11.64-9.58,16.89-18.9,16.89C63.72,82.54,54.64,77.72,54.64,66.21ZM81.43,66V52.82c0-4.7-3.7-7.26-7.89-7.26-4,0-7.7,2.13-7.7,7.32V66c0,4.76,3.32,7.38,7.89,7.38C77.67,73.34,81.43,71.09,81.43,66Z" />
      <path class="cls-1"
        d="M107.28,37.17h11.51l8.77,31.48h.18l9-31.48h10.63L132.88,81.92H121.42Z" />
      <path class="cls-1" d="M163.86,37.17h11.2V81.79h-11.2Z" />
      <path class="cls-1"
        d="M195.22,37.17h18.65c9.95,0,18.21,5.32,18.21,15.71V65.46c0,11.08-8.76,16.33-18.15,16.33H195.22Zm18,35.48c4.07,0,7.64-2.56,7.64-7.13V53.26c0-4.32-3.51-6.95-7.95-6.95h-6.51V72.65Z" />
      <line class="cls-2" x1="280.34" y1="92.9" x2="318.24" y2="59.74" />
      <line class="cls-2" x1="346.2" y1="104.32" x2="282.08" y2="98.31" />
      <line class="cls-2" x1="288.99" y1="53.51" x2="286.91" y2="28.1" />
      <line class="cls-2" x1="339.5" y1="57.69" x2="365.91" y2="73.01" />
      <line class="cls-2" x1="318.15" y1="42.56" x2="295.83" y2="23.49" />
      <path class="cls-2"
        d="M372.44,70.16a55.69,55.69,0,0,0-6.06-35.73,57.78,57.78,0,0,0-3.89-6.12" />
      <path class="cls-2" d="M356.68,100.81a55.65,55.65,0,0,0,12.56-19" />
      <path class="cls-2"
        d="M279.94,102.77A55.94,55.94,0,0,0,344,110.26c1.12-.61,2.19-1.27,3.25-1.94" />
      <path class="cls-2"
        d="M275.93,23.54a55.91,55.91,0,0,0-7.75,64.35c.76,1.39,1.58,2.73,2.44,4" />
      <path class="cls-2" d="M352.71,17.92a55.94,55.94,0,0,0-55.27-9" />
      <line class="cls-2" x1="315.3" y1="53.89" x2="295.36" y2="58.24" />
      <line class="cls-2" x1="287.33" y1="65.15" x2="277.49" y2="90.92" />
      <line class="cls-2" x1="352.82" y1="27.65" x2="337.66" y2="42.05" />
      <line class="cls-2" x1="333.46" y1="63.04" x2="349.65" y2="99.4" />
      <circle class="cls-2" cx="358.04" cy="22.7" r="7.19" />
      <circle class="cls-2" cx="274.93" cy="97.64" r="7.19" />
      <circle class="cls-2" cx="352.21" cy="104.88" r="6.05" />
      <circle class="cls-2" cx="371.14" cy="76.05" r="6.05" />
      <circle class="cls-2" cx="285.84" cy="14.96" r="13.14" />
      <circle class="cls-2" cx="289.48" cy="59.52" r="6.05" />
      <circle class="cls-2" cx="328.14" cy="51.09" r="13.14" />
    </g>
  </g>
</svg>
