<svg xmlns="http://www.w3.org/2000/svg" viewBox="0 0 200 200"><defs><style>.a{fill:#1e0a46;}</style></defs><title>CovidAtlas-Logo-Final</title><path class="a" d="M34.4,105.85h3.75L49,135.24H44.73L42,127.46H30.29l-2.8,7.78h-4ZM40.86,124l-4.65-13.33h0L31.44,124Z"/><path class="a" d="M64.62,109.35H55.44v-3.46H77.79v3.46H68.65v25.89h-4Z"/><path class="a" d="M89.85,105.89h4v25.77h14.86v3.58H89.85Z"/><path class="a" d="M130.4,105.85h3.74L145,135.24h-4.24L138,127.46H126.28l-2.8,7.78h-4ZM136.86,124l-4.65-13.33h0L127.44,124Z"/><path class="a" d="M154.57,128.61l3.66-1.4c1.15,3.17,4,5,7.78,5,3.58,0,6.58-1.64,6.58-4.81,0-2.8-1.89-4-4.36-4.74l-5.35-1.44c-4-1.11-6.67-3.12-6.67-7.65,0-5.06,4.24-8.19,9.67-8.19,4.66,0,8.69,1.81,10.13,5.8l-3.5,1.4c-1.23-2.51-3.54-3.79-6.71-3.79-2.8,0-5.64,1.36-5.64,4.45,0,2.22,1.61,3.62,4.7,4.49l5.39,1.48c3.46.9,6.29,3,6.29,7.86,0,5.14-4.36,8.68-10.7,8.68C160.49,135.73,156,133.35,154.57,128.61Z"/><path class="a" d="M23.68,80v-9c0-7.2,5.85-10.78,12.35-10.78,5.68,0,11.89,2.88,11.89,9.67V71.3H41v-.66c0-3.09-2.6-4.36-4.86-4.36-2.59,0-5.1,1.35-5.1,4.69v8.89c0,3,2.18,4.73,5.18,4.73,2.27,0,4.78-1.32,4.78-4.36v-.7h6.91V81c0,6.75-6.05,9.63-11.73,9.63C29.73,90.6,23.68,87.35,23.68,80Z"/><path class="a" d="M59.62,79.86V71.38c0-7.45,6.09-11.11,12.39-11.11,6.54,0,12.59,3.5,12.59,11.07v8.15c0,7.65-6.3,11.11-12.43,11.11C65.59,90.6,59.62,87.43,59.62,79.86Zm17.61-.13V71.05c0-3.09-2.42-4.77-5.18-4.77S67,67.68,67,71.09v8.6c0,3.13,2.18,4.86,5.18,4.86C74.76,84.55,77.23,83.07,77.23,79.73Z"/><path class="a" d="M94.24,60.76h7.57l5.76,20.7h.13l5.92-20.7h7l-9.55,29.43h-7.53Z"/><path class="a" d="M131.45,60.76h7.37V90.11h-7.37Z"/><path class="a" d="M152.08,60.76h12.26c6.54,0,12,3.5,12,10.33v8.27c0,7.29-5.76,10.75-11.94,10.75h-12.3ZM163.93,84.1c2.67,0,5-1.69,5-4.69V71.34c0-2.84-2.31-4.57-5.23-4.57h-4.28V84.1Z"/></svg>