<svg id="Layer_1" data-name="Layer 1" xmlns="http://www.w3.org/2000/svg" viewBox="0 0 154.902 154.902">
    <defs>
        <style>
            .cls-1 {
                fill: rgba(45, 141, 225, 0.1);
            }
        </style>
    </defs><path
        class="cls-1"
        d="M148.1993,94.1015a9.3453,9.3453,0,0,0-4.8822-5.3238A68.3149,68.3149,0,0,0,131.891,40.5661a10.7959,10.7959,0,0,0,1.5632-2.4085,10.75,10.75,0,0,0-16.22-13.1427A69.03,69.03,0,0,0,52.3708,14.4558,17.8381,17.8381,0,1,0,22.8763,34.5223,68.95,68.95,0,0,0,14.54,112.453c.5949,1.0934,1.256,2.2159,1.9922,3.3919a10.735,10.735,0,0,0,13.9094,16.1545,68.99,68.99,0,0,0,77.5691,8.0269c.7742-.4212,1.5739-.8851,2.431-1.4041a9.3641,9.3641,0,0,0,14.4625-11.5679,68.2561,68.2561,0,0,0,13.4808-20.44,9.2457,9.2457,0,0,0,.9812.0543,9.3951,9.3951,0,0,0,8.833-12.5674ZM139.0736,87.91a9.2821,9.2821,0,0,0-6.5018,2.9246L104.4211,74.4992A17.762,17.762,0,0,0,102.36,56.8533l15.2233-14.4558a10.6728,10.6728,0,0,0,10.8893.8248c1.2217,1.7934,2.3331,3.6037,3.3113,5.4021A63.8834,63.8834,0,0,1,139.0736,87.91ZM114.91,122.5256,97.2119,82.7948a17.6384,17.6384,0,0,0,5.0537-4.5465l28.1389,16.3285a9.3249,9.3249,0,0,0,3.8985,10.5889A63.9441,63.9441,0,0,1,121.94,123.9,9.3742,9.3742,0,0,0,114.91,122.5256Zm-7.0174,6.1811L35.167,121.889a10.2334,10.2334,0,0,0-1.3343-4.1273L76.1207,80.77a17.94,17.94,0,0,0,11.9214,4.5676,17.7515,17.7515,0,0,0,5.2107-.8011l17.7279,39.7981A9.41,9.41,0,0,0,107.8924,128.7067ZM49.591,37.49l23.5769,20.144a17.8733,17.8733,0,0,0-2.8985,11.5088L50.3308,73.4915a9.4,9.4,0,0,0-7.0468-5.2148L41.1209,41.8108a18.0358,18.0358,0,0,0,2.4534-.6781A17.752,17.752,0,0,0,49.591,37.49Zm51.162,25.4085a13.5253,13.5253,0,1,1-12.7412-8.9443A13.4409,13.4409,0,0,1,100.753,62.8988ZM40.1573,72.7919a5.0571,5.0571,0,1,1,3.4278,9.5156,5.0576,5.0576,0,0,1-6.4717-3.0429,5.0644,5.0644,0,0,1,3.0449-6.4727ZM41.88,86.9325a9.3743,9.3743,0,0,0,9.3617-9.2135l19.9372-4.3476c.0189.0543.03.1094.05.1637a17.8043,17.8043,0,0,0,2.0388,3.9862l-42.282,36.9863c-.2338-.1769-.4759-.3406-.7227-.4975L40.64,86.8371A9.3109,9.3109,0,0,0,41.88,86.9325Zm79.6689-59.395a6.4253,6.4253,0,1,1-3.8672,8.2222A6.4334,6.4334,0,0,1,121.5489,27.5375Zm-7.1579.7418a10.6675,10.6675,0,0,0,.2156,10.9811L99.3687,53.73a17.8085,17.8085,0,0,0-23.4108.6L52.381,34.1863a17.8188,17.8188,0,0,0,1.9583-15.8386A64.7014,64.7014,0,0,1,114.391,28.2793Zm-89.11-9.7008a13.53,13.53,0,1,1-.4853,10.3428A13.4417,13.4417,0,0,1,25.2813,18.5785Zm.4952,19.196A17.6951,17.6951,0,0,0,36.81,42.16l2.1641,26.4779c-.0937.0305-.1883.052-.2817.0857h-.001A9.3712,9.3712,0,0,0,36.5985,85.3L26.2264,112.46a10.6732,10.6732,0,0,0-5.3767.4872c-.28.1008-.5481.22-.8143.3408-.6227-1.0044-1.1884-1.9679-1.6964-2.9023A64.6261,64.6261,0,0,1,25.7765,37.7745Zm.8945,91.33a6.4247,6.4247,0,1,1,3.8662-8.2226A6.43,6.43,0,0,1,26.671,129.1044Zm6.8123-.1825a10.8258,10.8258,0,0,0,1.2744-2.7287l72.721,6.8173a9.3748,9.3748,0,0,0,.4638,1.88c.0188.0522.0477.0972.0673.1488-.7272.4371-1.4094.8309-2.0673,1.1891A64.7085,64.7085,0,0,1,33.4833,128.9219Zm85,7.5468a5.0577,5.0577,0,1,1,3.0439-6.4727A5.0646,5.0646,0,0,1,118.4835,136.4687ZM141.086,102.04a5.0571,5.0571,0,0,1-3.4277-9.5157h.001a5.0569,5.0569,0,1,1,3.4267,9.5157Z"/></svg>
