<svg xmlns="http://www.w3.org/2000/svg" viewBox="0 0 725.94 200"><defs><style>.a{fill:#1e0a46;}.b{fill:#fff;}.c{fill:none;stroke:#2d8de1;stroke-miterlimit:10;stroke-width:3.62px;}</style></defs><title>CovidAtlas-Logo-Final</title><rect class="a" x="-5" y="-5" width="736.28" height="210"/><path class="b" d="M469.59,79.66h5.7l16.46,44.68H485.3l-4.13-11.83H463.34l-4.26,11.83H453Zm9.83,27.66L472.35,87h-.06l-7.2,20.28Z"/><path class="b" d="M515.54,85h-14V79.72h34V85H521.67v39.36h-6.13Z"/><path class="b" d="M553.91,79.72H560V118.9h22.59v5.44H553.91Z"/><path class="b" d="M615.55,79.66h5.7l16.46,44.68h-6.45l-4.13-11.83H609.3L605,124.34h-6.13Zm9.83,27.66L618.31,87h-.06l-7.2,20.28Z"/><path class="b" d="M652.3,114.27l5.57-2.13c1.75,4.82,6.13,7.57,11.83,7.57,5.44,0,10-2.5,10-7.32,0-4.26-2.88-6.07-6.63-7.2L664.94,103c-6.13-1.69-10.14-4.76-10.14-11.64,0-7.7,6.45-12.45,14.71-12.45,7.07,0,13.2,2.75,15.39,8.82l-5.32,2.13c-1.87-3.82-5.38-5.76-10.2-5.76-4.25,0-8.57,2.07-8.57,6.76,0,3.38,2.44,5.51,7.13,6.82l8.2,2.25c5.26,1.38,9.58,4.57,9.58,12,0,7.82-6.64,13.2-16.27,13.2C661.31,125.09,654.43,121.46,652.3,114.27Z"/><path class="b" d="M55.38,109V95.37c0-11,8.89-16.4,18.77-16.4,8.64,0,18.09,4.38,18.09,14.71v2.06H81.73v-1c0-4.69-4-6.63-7.39-6.63-3.94,0-7.76,2.06-7.76,7.13v13.52c0,4.57,3.32,7.19,7.89,7.19,3.44,0,7.26-2,7.26-6.63v-1.06H92.24v2.19c0,10.26-9.2,14.64-17.84,14.64C64.58,125.09,55.38,120.15,55.38,109Z"/><path class="b" d="M110,108.76V95.87c0-11.33,9.26-16.9,18.84-16.9C138.81,79,148,84.29,148,95.8v12.39c0,11.65-9.58,16.9-18.9,16.9C119.1,125.09,110,120.27,110,108.76Zm26.79-.19V95.37c0-4.7-3.7-7.26-7.89-7.26-4,0-7.7,2.12-7.7,7.32v13.08c0,4.75,3.32,7.38,7.89,7.38C133.05,115.89,136.81,113.64,136.81,108.57Z"/><path class="b" d="M162.66,79.72h11.51l8.77,31.48h.18l9-31.48h10.63l-14.51,44.75H176.8Z"/><path class="b" d="M219.24,79.72h11.2v44.62h-11.2Z"/><path class="b" d="M250.6,79.72h18.65c9.95,0,18.21,5.32,18.21,15.71V108c0,11.07-8.76,16.33-18.15,16.33H250.6Zm18,35.48c4.07,0,7.64-2.56,7.64-7.13V95.8c0-4.31-3.51-6.94-7.95-6.94H261.8V115.2Z"/><line class="c" x1="335.72" y1="135.45" x2="373.62" y2="102.29"/><line class="c" x1="401.58" y1="146.87" x2="337.46" y2="140.86"/><line class="c" x1="344.37" y1="96.06" x2="342.3" y2="70.65"/><line class="c" x1="394.88" y1="100.24" x2="421.29" y2="115.56"/><line class="c" x1="373.53" y1="85.11" x2="351.21" y2="66.04"/><path class="c" d="M427.82,112.71A55.69,55.69,0,0,0,421.76,77a57.92,57.92,0,0,0-3.89-6.13"/><path class="c" d="M412.06,143.36a55.65,55.65,0,0,0,12.56-19.05"/><path class="c" d="M335.32,145.32a55.94,55.94,0,0,0,64.07,7.49c1.12-.61,2.2-1.27,3.25-1.94"/><path class="c" d="M331.31,66.09a55.91,55.91,0,0,0-7.75,64.35c.76,1.39,1.58,2.73,2.44,4"/><path class="c" d="M408.09,60.47a55.94,55.94,0,0,0-55.27-9"/><path class="c" d="M370.68,96.44l-19.94,4.35"/><path class="c" d="M342.71,107.7l-9.84,25.77"/><path class="c" d="M408.2,70.2,393,84.6"/><path class="c" d="M388.84,105.59,405,142"/><circle class="c" cx="413.42" cy="65.25" r="7.19"/><circle class="c" cx="330.31" cy="140.19" r="7.19"/><circle class="c" cx="407.59" cy="147.43" r="6.05"/><circle class="c" cx="426.52" cy="118.6" r="6.05"/><circle class="c" cx="341.22" cy="57.5" r="13.14"/><circle class="c" cx="344.86" cy="102.07" r="6.05"/><circle class="c" cx="383.52" cy="93.64" r="13.14"/></svg>